# Blender 3.4.1
# www.blender.org
mtllib finish.mtl
o Plane
v -0.250000 0.000000 0.250000
v 0.250000 0.000000 0.250000
v -0.250000 0.000000 -0.250000
v 0.250000 0.000000 -0.250000
v -0.250000 2.000000 -0.250000
v -0.250000 2.000000 0.250000
v 0.250000 2.000000 0.250000
v 0.250000 2.000000 -0.250000
v -0.250000 4.000000 -0.250000
v -0.250000 4.000000 0.250000
v 0.250000 4.000000 0.250000
v 0.250000 4.000000 -0.250000
v -3.250000 2.000000 -0.250000
v -3.250000 2.000000 0.250000
v -3.250000 4.000000 -0.250000
v -3.250000 4.000000 0.250000
vn -0.0000 -1.0000 -0.0000
vn 1.0000 -0.0000 -0.0000
vn -1.0000 -0.0000 -0.0000
vn -0.0000 -0.0000 -1.0000
vn -0.0000 -0.0000 1.0000
vn -0.0000 1.0000 -0.0000
vt 0.000000 0.000000
vt 1.000000 0.000000
vt 0.000000 1.000000
vt 1.000000 1.000000
vt 0.000000 1.000000
vt 0.000000 0.000000
vt 1.000000 0.000000
vt 1.000000 1.000000
vt 0.000000 1.000000
vt 0.000000 0.000000
vt 1.000000 0.000000
vt 1.000000 1.000000
vt 0.000000 1.000000
vt 0.000000 0.000000
vt 0.000000 1.000000
vt 0.000000 0.000000
s 0
usemtl Material.001
f 1/1/1 3/3/1 4/4/1 2/2/1
f 7/7/2 8/8/2 12/12/2 11/11/2
f 2/2/2 4/4/2 8/8/2 7/7/2
f 3/3/3 1/1/3 6/6/3 5/5/3
f 4/4/4 3/3/4 5/5/4 8/8/4
f 1/1/5 2/2/5 7/7/5 6/6/5
f 10/10/6 11/11/6 12/12/6 9/9/6
f 5/5/1 6/6/1 14/14/1 13/13/1
f 8/8/4 5/5/4 9/9/4 12/12/4
f 6/6/5 7/7/5 11/11/5 10/10/5
f 13/13/3 14/14/3 16/16/3 15/15/3
f 10/10/6 9/9/6 15/15/6 16/16/6
usemtl Material.002
f 6/6/5 10/10/5 16/16/5 14/14/5
f 9/9/4 5/5/4 13/13/4 15/15/4
